<svg width="83" height="140" viewBox="0 0 83 140" fill="none" xmlns="http://www.w3.org/2000/svg">
<g clip-path="url(#clip0_10122_272)">
<g style="mix-blend-mode:multiply">
<path d="M28.7038 73.7679C36.2665 68.4246 41.1232 58.2831 41.1232 47.7216C41.1232 41.0034 39.2769 34.6446 35.781 29.3325C32.5164 24.3694 28.0042 20.7499 23.05 19.1042C23.0065 19.2397 22.9595 19.3716 22.9178 19.5087C20.9845 25.5915 20.0048 32.9294 20.0048 41.3193C20.0048 49.7092 22.2356 59.5105 26.633 69.4002C27.2769 70.8463 27.9677 72.3028 28.7038 73.7696V73.7679Z" fill="#F5B957"/>
<path d="M60.1204 19.6355C55.5195 21.552 51.3657 25.2183 48.3901 30.0061C45.1708 35.1879 43.4689 41.3141 43.4689 47.7216C43.4689 57.4482 47.2659 66.404 53.6801 71.966C58.5334 61.7585 62.9969 50.0096 62.9969 41.3176C62.9969 32.6257 62.0294 25.6905 60.1222 19.6337L60.1204 19.6355Z" fill="#97C7EB"/>
<path d="M14.8818 51.7351C14.2988 48.2875 13.9595 44.8381 13.8655 41.3992C13.6237 32.4816 14.7356 24.6802 17.1753 18.0905C17.1266 18.0905 17.0831 18.0905 17.0483 18.0905C13.4549 18.0905 9.49428 19.0556 6.5482 20.6302C4.37475 24.7392 4.2512 31.4452 6.25586 38.3265C7.93684 44.1021 11.1161 49.0131 14.8818 51.7334V51.7351Z" fill="#6A80B9"/>
<path d="M22.2862 75.9327L22.5646 75.9205C22.6864 75.9153 22.843 75.9084 23.0135 75.9014C22.1487 74.2158 21.2612 72.3479 20.3929 70.3134C18.1829 65.135 16.528 59.8993 15.4334 54.655C11.6904 56.8649 9.50474 60.7899 9.70138 64.9996C9.84407 68.0618 11.2275 70.8845 13.5924 72.9486C15.9711 75.0248 19.0617 76.0854 22.2862 75.9344V75.9327Z" fill="#0665A5"/>
<path d="M67.5684 54.6533C66.4738 59.8993 64.8172 65.1332 62.6072 70.3116C61.7388 72.3462 60.8496 74.2141 59.9865 75.8997C60.157 75.9084 60.3137 75.9136 60.4355 75.9188L60.7139 75.9309C63.9401 76.082 67.0289 75.0213 69.4077 72.9451C71.7743 70.881 73.156 68.0583 73.2987 64.9961C73.4953 60.7847 71.3097 56.8614 67.5666 54.6515L67.5684 54.6533Z" fill="#F15A24"/>
<path d="M76.7442 38.3283C78.7471 31.4469 78.6253 24.7409 76.4518 20.6319C73.504 19.0574 69.5452 18.0922 65.9517 18.0922C65.9169 18.0922 65.8734 18.0922 65.8247 18.0922C68.2644 24.6802 69.3764 32.4816 69.1345 41.4009C69.0405 44.8399 68.7012 48.2892 68.1182 51.7368C71.8839 49.0166 75.0632 44.1056 76.7442 38.33V38.3283Z" fill="#3AA176"/>
<g style="mix-blend-mode:multiply">
<path d="M29.7879 75.8684C32.9376 81.828 36.8251 87.9229 41.4017 94.063C41.4452 94.122 41.5496 94.1185 41.5896 94.0561C42.0264 93.3634 47.3826 84.8329 52.6274 74.1463C47.5966 69.9835 43.9928 63.9528 42.27 57.0749C40.2497 64.8711 35.7897 71.742 29.7896 75.8667L29.7879 75.8684Z" fill="#F15A24"/>
<path d="M53.4836 7.13653C48.6216 1.50508 43.4881 0.282962 42.0316 0.0416631C41.8611 0.0138877 41.6836 0 41.5009 0C41.3182 0 41.1407 0.0138877 40.9701 0.0416631C39.5136 0.281226 34.3802 1.50334 29.5182 7.13653C27.2229 9.79603 25.3175 13.0718 23.8366 16.8996C29.2728 18.7171 34.1992 22.6612 37.7422 28.0497C39.8129 31.1987 41.3443 34.6862 42.2996 38.3873C43.1854 34.9709 44.5601 31.7299 46.3977 28.7735C49.6587 23.524 54.2527 19.5053 59.3601 17.4186C57.8513 13.3686 55.8815 9.91581 53.4836 7.13653Z" fill="#F15A24"/>
<path d="M7.35908 65.1072C7.14156 60.4513 9.32371 56.0941 13.1416 53.3565C9.12359 50.2856 5.77206 45.0551 4.00407 38.981C2.9652 35.4153 2.47099 31.8688 2.50406 28.6295C1.27203 32.6117 0.487221 37.0072 0.160073 41.7915C-0.0661471 45.0829 -0.163596 48.6017 0.638614 52.0371C1.29813 54.8668 3.03654 60.0399 7.5766 66.9525C7.46349 66.3467 7.38866 65.7321 7.35908 65.1072Z" fill="#F15A24"/>
<path d="M17.0483 15.7521C17.177 15.7521 17.7461 15.7539 18.115 15.7591C18.9589 13.8356 19.9247 12.025 21.0158 10.3342C21.5674 9.47836 21.2577 8.62947 20.8244 8.1625C20.5338 7.84829 20.0657 7.57574 19.5175 7.57574C19.2478 7.57574 18.9589 7.64171 18.6614 7.80142C14.4015 10.0859 10.7733 13.3391 7.86548 17.4777C10.7141 16.3892 14.0047 15.7539 17.0483 15.7539V15.7521Z" fill="#F15A24"/>
<path d="M22.6655 78.2571L22.3958 78.2693C22.1574 78.2797 21.919 78.2866 21.6806 78.2866C19.3557 78.2866 17.1092 77.7519 15.0889 76.7416C19.9874 82.3106 24.5414 86.154 26.7983 87.2216C27.4074 87.5098 27.8564 87.5983 28.0982 87.4803C28.4828 87.291 28.7525 86.9543 28.8604 86.529C28.9735 86.0828 28.8848 85.6106 28.6168 85.2374C27.7746 84.0604 26.1232 81.6249 24.2229 78.1738C23.7948 78.2085 23.2276 78.2345 22.6672 78.2588L22.6655 78.2571Z" fill="#F15A24"/>
<path d="M41.5148 113.4C45.4869 113.4 48.7068 110.188 48.7068 106.225C48.7068 102.263 45.4869 99.0504 41.5148 99.0504C37.5427 99.0504 34.3228 102.263 34.3228 106.225C34.3228 110.188 37.5427 113.4 41.5148 113.4Z" fill="#F15A24"/>
<path d="M41.9491 123.647C43.4081 123.411 44.3988 122.04 44.162 120.584C43.9252 119.129 42.5504 118.14 41.0914 118.376C39.6324 118.613 38.6416 119.984 38.8785 121.44C39.1153 122.895 40.4901 123.883 41.9491 123.647Z" fill="#F15A24"/>
<path d="M80.4959 28.6295C80.529 31.8688 80.0348 35.4153 78.9959 38.981C77.2279 45.0551 73.8764 50.2873 69.8584 53.3565C73.6763 56.0958 75.8602 60.4513 75.6409 65.1072C75.6113 65.7321 75.5365 66.3484 75.4234 66.9525C79.9635 60.0399 81.7001 54.8668 82.3614 52.0371C83.1636 48.6017 83.0644 45.0829 82.8399 41.7915C82.5128 37.0072 81.728 32.61 80.4959 28.6295Z" fill="#F15A24"/>
<path d="M64.3369 7.79965C64.0393 7.63994 63.7505 7.57397 63.4808 7.57397C62.9326 7.57397 62.4663 7.84652 62.1739 8.16073C61.7406 8.6277 61.4309 9.47659 61.9825 10.3324C63.0736 12.0232 64.0393 13.8338 64.8833 15.7573C65.2522 15.7521 65.823 15.7503 65.95 15.7503C68.9936 15.7503 72.2842 16.3857 75.1328 17.4742C72.225 13.3356 68.5968 10.0824 64.3369 7.79791V7.79965Z" fill="#F15A24"/>
<path d="M58.7789 78.1738C56.8786 81.6249 55.2255 84.0587 54.385 85.2374C54.117 85.6124 54.0283 86.0828 54.1414 86.529C54.2493 86.9543 54.519 87.291 54.9036 87.4803C55.1454 87.6 55.5944 87.5098 56.2034 87.2216C58.4587 86.1557 63.0127 82.3106 67.9129 76.7416C65.8926 77.7519 63.6443 78.2866 61.3212 78.2866C61.0828 78.2866 60.8462 78.2814 60.606 78.2693L60.3363 78.2571C59.776 78.2328 59.2069 78.2068 58.7806 78.172L58.7789 78.1738Z" fill="#F15A24"/>
<path d="M11.3771 134.082C10.8568 135.929 9.14273 140.16 6.84399 137.703C5.30744 136.061 4.86022 133.433 4.60616 131.291C4.27379 128.482 4.35906 125.579 4.96115 122.812C5.33006 121.12 6.04004 118.182 7.87242 117.429C9.10619 116.922 9.9171 118.535 10.246 119.477C11.1126 121.962 11.0047 124.798 10.7715 127.373C10.6932 128.242 12.6683 128.037 12.7327 127.331C13.0059 124.302 13.648 116.143 8.75816 116.16C5.98958 116.17 4.3695 118.535 3.54641 120.892C2.42575 124.102 2.24477 127.729 2.56844 131.088C2.8138 133.643 3.35325 137.026 5.45361 138.787C6.48552 139.651 7.85676 139.825 9.13229 139.457C11.6973 138.717 12.6752 136.391 13.3382 134.044C13.5627 133.247 11.5789 133.374 11.3771 134.086V134.082Z" fill="#F15A24"/>
<path d="M21.3203 117.82C19.9073 116.431 17.9914 116 16.0825 116.301C15.5187 116.309 14.8348 116.591 14.8313 117.064C14.7861 124.507 14.8104 131.95 14.8313 139.394C14.8331 140.111 16.8133 139.851 16.8116 139.045C16.8081 137.82 16.8046 136.594 16.8012 135.368C18.249 136.804 19.7333 138.2 21.2124 139.602C21.7484 140.111 23.6191 139.495 23.0692 138.972C21.336 137.327 19.5958 135.691 17.9166 133.99C24.3726 132.782 25.8882 122.304 21.3186 117.816L21.3203 117.82ZM16.7959 132.928C16.7838 127.744 16.7803 122.562 16.8099 117.379C20.3702 117.358 21.8006 122.003 21.8841 125.027C21.9729 128.232 20.6504 133.086 16.7977 132.928H16.7959Z" fill="#F15A24"/>
<path d="M34.2009 117.431C35.2015 117.429 35.8837 116.269 34.5385 116.271C31.8378 116.276 29.1371 116.282 26.4364 116.271C26.1092 116.271 25.8186 116.393 25.6185 116.559C25.4236 116.686 25.2914 116.856 25.2896 117.065C25.2444 124.507 25.2687 131.95 25.2896 139.394C25.2896 139.682 25.6133 139.811 25.9961 139.811C26.0309 139.813 26.0605 139.816 26.0988 139.818C28.7995 139.828 31.5002 139.823 34.2009 139.818C35.2015 139.818 35.8837 138.656 34.5385 138.66C32.1145 138.665 29.6922 138.667 27.2682 138.66C27.2647 137.143 27.2595 135.625 27.256 134.11C28.9405 134.124 30.6232 134.11 32.3077 134.098C33.3065 134.089 33.9921 132.928 32.6452 132.938C30.8477 132.952 29.0501 132.966 27.2525 132.947C27.2403 127.775 27.2369 122.604 27.2647 117.433C29.5756 117.438 31.8883 117.434 34.1992 117.433L34.2009 117.431Z" fill="#F15A24"/>
<path d="M52.2341 126.548C49.704 124.651 48.6372 121.21 50.8977 118.549C52.3316 116.861 54.6791 117.108 55.5839 119.07C56.5689 121.207 56.2104 123.989 55.9407 126.225C55.8363 127.088 57.8148 126.895 57.9018 126.184C58.2377 123.397 58.9337 118.625 56.0364 116.841C52.6901 114.78 48.2214 117.695 47.7689 121.283C47.4313 123.972 48.672 125.98 50.7881 127.525C52.664 128.895 55.2115 129.964 56.1077 132.275C56.7742 133.994 56.4993 136.33 55.2829 137.731C54.1674 139.017 52.0984 139.252 50.9551 137.877C50.059 136.801 49.9284 135.287 50.099 133.954C50.2086 133.094 48.2301 133.284 48.1378 133.995C47.9046 135.811 48.1622 137.959 49.7457 139.141C51.2927 140.295 53.6384 140.196 55.3003 139.366C58.2533 137.894 59.2974 133.903 57.686 131.069C56.4906 128.963 54.0961 127.942 52.2341 126.546V126.548Z" fill="#F15A24"/>
<path d="M68.9309 117.464C69.9314 117.462 70.6136 116.302 69.2685 116.304C66.5677 116.309 63.867 116.315 61.1663 116.304C60.8392 116.304 60.5485 116.426 60.3484 116.592C60.1535 116.719 60.0213 116.889 60.0195 117.097C59.9743 124.54 59.9987 131.983 60.0195 139.427C60.0195 139.715 60.3432 139.844 60.726 139.844C60.7609 139.846 60.7904 139.849 60.8287 139.851C63.5294 139.861 66.2301 139.856 68.9309 139.851C69.9314 139.851 70.6136 138.689 69.2685 138.693C66.8444 138.698 64.4221 138.7 61.9981 138.693C61.9946 137.176 61.9894 135.658 61.9859 134.143C63.6704 134.157 65.3531 134.143 67.0376 134.131C68.0364 134.122 68.722 132.961 67.3752 132.971C65.5776 132.985 63.78 132.999 61.9824 132.98C61.9703 127.808 61.9668 122.637 61.9964 117.465C64.3073 117.471 66.6199 117.467 68.9309 117.465V117.464Z" fill="#F15A24"/>
<path d="M77.4089 117.853C75.9959 116.464 74.08 116.033 72.171 116.334C71.6072 116.342 70.9234 116.624 70.9199 117.097C70.8746 124.54 70.899 131.983 70.9199 139.427C70.9216 140.144 72.9019 139.884 72.9002 139.078C72.8967 137.853 72.8932 136.627 72.8897 135.401C74.3375 136.837 75.8219 138.233 77.301 139.635C77.837 140.144 79.7076 139.528 79.1578 139.005C77.4246 137.36 75.6844 135.724 74.0052 134.023C80.4611 132.815 81.9768 122.337 77.4072 117.849L77.4089 117.853ZM72.8845 132.961C72.8723 127.777 72.8688 122.595 72.8984 117.412C76.4588 117.391 77.8892 122.036 77.9727 125.06C78.0615 128.265 76.7389 133.119 72.8862 132.961H72.8845Z" fill="#F15A24"/>
</g>
</g>
</g>
<defs>
<clipPath id="clip0_10122_272">
<rect width="83" height="140" fill="white"/>
</clipPath>
</defs>
</svg>
